Coordinates
version=1
nRows=43
nColumns=12
inDegrees=yes

Units are S.I. units (second, meters, Newtons, ...)
Angles are in degrees

endheader
time	SC_y	SC_z	SC_x	AC_y	AC_z	AC_x	GH_y	GH_z	GH_yy	EL_x	PS_y
       0.0              -57.69          4.032          84.34          32.05         -14.19          17.86         -148.2          42.15          13.61          62.94          109.2
  0.002656              -57.69          4.033          84.33          32.05         -14.18          17.85         -148.2          42.15          13.62          62.93          109.2
  0.005313              -57.68          4.034          84.32          32.05         -14.18          17.85         -148.2          42.14          13.62          62.92          109.2
  0.007969              -57.67          4.035          84.31          32.05         -14.18          17.85         -148.2          42.14          13.63          62.91          109.2
   0.01063              -57.67          4.037           84.3          32.04         -14.18          17.84         -148.1          42.13          13.64          62.91          109.2
   0.01328              -57.66          4.038          84.29          32.04         -14.18          17.84         -148.1          42.13          13.65           62.9          109.2
   0.01594              -57.65          4.039          84.28          32.04         -14.18          17.83         -148.1          42.12          13.66          62.88          109.1
   0.01859              -57.65          4.041          84.26          32.04         -14.18          17.83         -148.1          42.12          13.67          62.87          109.1
   0.02125              -57.64          4.042          84.25          32.04         -14.18          17.82         -148.1          42.11          13.68          62.86          109.1
   0.02391              -57.63          4.044          84.23          32.04         -14.18          17.82         -148.0          42.11          13.69          62.85          109.1
   0.02656              -57.62          4.045          84.22          32.04         -14.18          17.81         -148.0           42.1           13.7          62.83          109.0
   0.02922              -57.61          4.047           84.2          32.04         -14.18           17.8         -148.0           42.1          13.71          62.82          109.0
   0.03188              -57.59          4.049          84.18          32.04         -14.18          17.79         -148.0          42.09          13.73           62.8          109.0
   0.03453              -57.58          4.052          84.16          32.04         -14.18          17.79         -147.9          42.08          13.74          62.79          109.0
   0.03719              -57.57          4.054          84.14          32.04         -14.17          17.78         -147.9          42.07          13.76          62.77          108.9
   0.03985              -57.55          4.056          84.11          32.04         -14.17          17.77         -147.9          42.06          13.77          62.75          108.9
    0.0425              -57.54          4.059          84.08          32.04         -14.17          17.76         -147.8          42.05          13.79          62.72          108.8
   0.04516              -57.52          4.062          84.06          32.04         -14.17          17.75         -147.8          42.04          13.81           62.7          108.8
   0.04782               -57.5          4.066          84.02          32.04         -14.17          17.73         -147.7          42.03          13.84          62.67          108.7
   0.05047              -57.48          4.069          83.99          32.04         -14.17          17.72         -147.7          42.02          13.86          62.64          108.7
   0.05313              -57.46          4.073          83.95          32.04         -14.16          17.71         -147.6           42.0          13.89          62.61          108.6
   0.05578              -57.43          4.078          83.91          32.04         -14.16          17.69         -147.6          41.99          13.92          62.58          108.6
   0.05844              -57.41          4.082          83.86          32.04         -14.16          17.67         -147.5          41.97          13.95          62.54          108.5
    0.0611              -57.37          4.088          83.81          32.03         -14.16          17.65         -147.4          41.95          13.99           62.5          108.4
   0.06375              -57.34          4.094          83.76          32.03         -14.15          17.63         -147.3          41.93          14.03          62.45          108.3
   0.06641               -57.3            4.1          83.69          32.03         -14.15           17.6         -147.2          41.91          14.07          62.39          108.2
   0.06907              -57.26          4.108          83.62          32.03         -14.15          17.58         -147.1          41.88          14.12          62.33          108.1
   0.07172              -57.21          4.116          83.54          32.03         -14.14          17.55         -147.0          41.85          14.18          62.27          108.0
   0.07438              -57.16          4.126          83.45          32.03         -14.14          17.51         -146.9          41.82          14.25          62.19          107.9
   0.07704               -57.1          4.137          83.35          32.03         -14.13          17.47         -146.7          41.78          14.32          62.11          107.7
   0.07969              -57.03          4.149          83.23          32.02         -14.13          17.43         -146.6          41.74           14.4          62.01          107.5
   0.08235              -56.95          4.163           83.1          32.02         -14.12          17.37         -146.4          41.69           14.5          61.89          107.3
   0.08501              -56.85          4.179          82.94          32.02         -14.11          17.31         -146.1          41.63          14.61          61.76          107.1
   0.08766              -56.74          4.198          82.76          32.01          -14.1          17.24         -145.9          41.56          14.74          61.61          106.8
   0.09032              -56.62           4.22          82.55          32.01         -14.09          17.16         -145.6          41.48          14.89          61.44          106.5
   0.09297              -56.47          4.246           82.3           32.0         -14.08          17.06         -145.2          41.39          15.07          61.23          106.1
   0.09563              -56.29          4.277          82.01           32.0         -14.06          16.95         -144.8          41.28          15.28          60.98          105.6
   0.09829              -56.08          4.314          81.66          31.99         -14.04          16.81         -144.2          41.15          15.53          60.68          105.1
    0.1009              -55.82          4.359          81.23          31.98         -14.02          16.64         -143.6          40.99          15.84          60.32          104.4
    0.1036              -55.51          4.414           80.7          31.97         -13.99          16.44         -142.8          40.79          16.21          59.88          103.6
    0.1063              -55.12          4.482          80.06          31.96         -13.95          16.19         -141.9          40.55          16.68          59.34          102.6
    0.1089              -54.64          4.567          79.25          31.94         -13.91          15.88         -140.7          40.25          17.25          58.66          101.4
    0.1116              -54.03          4.673          78.24          31.92         -13.86          15.48         -139.2          39.88          17.98          57.81          99.81
